<svg width="112" height="132" viewBox="0 0 112 132" fill="none" xmlns="http://www.w3.org/2000/svg">
<path d="M10.303 49.2437C15.6559 34.0404 28.0228 24.9272 41.379 17.7007C45.0116 15.7338 50.8 15.5152 54.846 16.8265C64.4442 19.8861 73.6142 24.3517 83.0057 28.096C92.3971 31.8404 98.6803 28.5477 95.7565 32.3066C88.0041 42.2358 77.5716 45.3245 66.0169 40.1086C60.7231 37.7119 55.6803 34.8053 50.2906 32.5907C41.5045 28.9483 32.5708 29.3854 24.6708 36C15.8847 43.3576 12.3629 52.857 15.2793 64.0901C18.838 77.7709 28.4362 86.2358 41.1132 91.6192C56.2415 98.0298 71.5543 96.7186 86.6013 91.6192C93.9845 89.0987 99.2045 83.6788 99.1528 75.4762C99.1528 71.8338 98.0379 66.3702 95.5941 65.0444C92.5669 63.4126 87.1772 64.2285 83.6332 65.7729C78.2066 68.1914 65.3524 81.2603 50.7853 79.3881C41.7777 78.2225 34.1951 68.4609 34.6455 65.1974C34.9999 62.6623 35.155 65.1974 48.1494 63.3834C57.9248 62.0212 65.0792 54.8311 70.4099 51.604C80.4954 45.4921 89.0821 45.7762 96.5982 54.7073C110.508 71.2729 101.449 95.2106 86.653 105.795C61.1365 124.007 22.0054 114.632 11.9273 82.8192C11.4548 81.3914 5.62943 65.1901 10.303 49.2437Z" fill="white"/>
</svg>
