<svg width="222" height="57" viewBox="0 0 222 57" fill="none" xmlns="http://www.w3.org/2000/svg">
<g clip-path="url(#clip0)">
<path d="M12.2615 22.8296C11.1846 23.1886 10.0544 23.36 8.9198 23.3361C7.68801 23.354 6.471 23.0655 5.37749 22.4965C4.3242 21.9285 3.42068 21.1174 2.74151 20.1302C1.97862 19.0081 1.41671 17.7612 1.08105 16.4454C0.677557 14.8916 0.48212 13.2907 0.499891 11.6851C0.48434 10.1033 0.675064 8.52631 1.06721 6.99414C1.39351 5.67562 1.94601 4.42409 2.7 3.2955C3.35941 2.29929 4.24045 1.47025 5.27371 0.873695C6.30499 0.289263 7.47249 -0.0100704 8.65689 0.00628446C9.83632 -0.0279049 11.0079 0.209482 12.0816 0.700213C13.0221 1.15529 13.8317 1.84307 14.4339 2.69873L12.2615 5.35647C11.9003 4.78582 11.3986 4.31812 10.8048 3.99846C10.211 3.67879 9.54515 3.51795 8.87137 3.53144C8.14807 3.51316 7.43943 3.73787 6.85806 4.16985C6.24908 4.65317 5.75907 5.27049 5.42592 5.97407C5.02553 6.79556 4.74144 7.66908 4.58185 8.56936C4.39003 9.59671 4.29505 10.6399 4.29819 11.6851C4.29392 12.7579 4.38888 13.8289 4.58185 14.8841C4.74046 15.7891 5.02457 16.6673 5.42592 17.4933C5.75938 18.1811 6.25007 18.7803 6.85806 19.242C7.46321 19.6729 8.19177 19.8946 8.93363 19.8734C9.40054 19.8781 9.86594 19.8197 10.3173 19.7C10.6718 19.6079 11.0069 19.4528 11.3067 19.242V13.4824H8.60846V10.207H14.683V21.5181C13.9583 22.0936 13.1387 22.5375 12.2615 22.8296Z" fill="white"/>
<path d="M28.6517 22.8647L27.5516 18.139H21.7193L20.5639 22.8647H16.8209L22.3558 0.575684H27.1573L32.5884 22.8647H28.6517ZM24.715 4.1286H24.5905L22.1897 15.1829H27.0812L24.715 4.1286Z" fill="white"/>
<path d="M40.1988 3.78163V22.8647H36.4766V3.78163H32.3254V0.575684H44.3776V3.78163H40.1988Z" fill="white"/>
<path d="M57.2738 22.8647V12.9762H50.6251V22.8647H46.889V0.575684H50.6251V9.59675H57.2738V0.575684H61.0098V22.8647H57.2738Z" fill="white"/>
<path d="M65.8459 22.8647V0.575684H75.7949V3.91348H69.4505V9.82575H75.3244V12.9137H69.4505V19.4922H76.1062V22.8647H65.8459Z" fill="white"/>
<path d="M89.5698 22.8647L83.2601 7.11943H83.1701L83.2324 22.8647H79.8423V0.575684H84.1387L90.3654 16.4111H90.4623L90.4415 0.575684H93.7071V22.8647H89.5698Z" fill="white"/>
<path d="M108.935 22.8647V12.9762H102.279V22.8647H98.5432V0.575684H102.279V9.59675H108.935V0.575684H112.671V22.8647H108.935Z" fill="white"/>
<path d="M125.574 22.8647V0.575684H135.523V3.91348H129.185V9.82575H135.059V12.9137H129.185V19.4922H135.841V22.8647H125.574Z" fill="white"/>
<path d="M117.23 22.8647V0.575684H121.001V22.8647H117.23Z" fill="white"/>
<path d="M140.096 22.8647V0.575684H143.894V19.3673H150.017V22.8369L140.096 22.8647Z" fill="white"/>
<path d="M168.033 22.8647L168.096 5.73851H167.999L163.543 22.8647H160.596L156.23 5.73851H156.168L156.237 22.8647H152.778V0.575684H157.828L162.097 16.8761H162.229L166.38 0.575684H171.686V22.8647H168.033Z" fill="white"/>
<path d="M185.226 4.86415C184.861 4.39677 184.393 4.02023 183.859 3.76386C183.325 3.5075 182.739 3.37821 182.147 3.38608C181.794 3.38498 181.443 3.44363 181.109 3.55957C180.773 3.67826 180.465 3.86483 180.203 4.10777C179.916 4.37979 179.696 4.71467 179.56 5.08621C179.395 5.52998 179.316 6.00076 179.324 6.47406C179.298 6.87811 179.359 7.28315 179.505 7.66075C179.651 8.03836 179.877 8.3794 180.169 8.65994C180.84 9.24914 181.59 9.74191 182.396 10.1241C182.943 10.4017 183.496 10.714 184.064 11.0679C184.629 11.4299 185.145 11.8638 185.6 12.3586C186.666 13.5309 187.232 15.0752 187.177 16.6609C187.195 17.6503 187.019 18.6336 186.658 19.5546C186.34 20.3463 185.869 21.0676 185.274 21.678C184.699 22.2549 184.008 22.702 183.247 22.9896C182.464 23.2825 181.634 23.4306 180.798 23.4267C179.622 23.4468 178.456 23.21 177.38 22.7328C176.411 22.3084 175.547 21.6759 174.848 20.88L176.924 18.1043C177.394 18.6889 177.987 19.1627 178.66 19.4922C179.303 19.8205 180.014 19.994 180.736 19.9987C181.104 20.0078 181.471 19.9396 181.811 19.7986C182.152 19.6576 182.46 19.4469 182.715 19.1799C183.267 18.5449 183.548 17.7172 183.496 16.876C183.515 16.4482 183.442 16.0214 183.281 15.6248C183.119 15.2283 182.874 14.8716 182.562 14.5791C181.838 13.9529 181.036 13.4234 180.175 13.0039C179.584 12.7205 179.013 12.3959 178.467 12.0324C177.946 11.6763 177.48 11.2462 177.083 10.7556C176.652 10.2419 176.312 9.65734 176.08 9.02772C175.822 8.26141 175.701 7.4559 175.72 6.64755C175.692 5.62933 175.88 4.61679 176.273 3.67753C176.6 2.88893 177.091 2.17924 177.712 1.59575C178.299 1.06638 178.986 0.660519 179.733 0.402193C180.471 0.142053 181.247 0.00834035 182.03 0.00665359C183.066 -0.00914417 184.096 0.179475 185.06 0.561796C185.927 0.910364 186.696 1.46528 187.302 2.17865L185.226 4.86415Z" fill="white"/>
<path d="M200.703 22.8647L194.774 12.0324H194.677V22.8647H190.913V0.575684H194.677V10.2352H194.774L200.447 0.575684H204.681L198.157 10.8389L205.075 22.8647H200.703Z" fill="white"/>
<path d="M217.121 22.8647L216.021 18.139H210.181L209.054 22.8647H205.29L210.825 0.575684H215.626L221.057 22.8647H217.121ZM213.198 4.1286H213.073L210.652 15.1829H215.55L213.198 4.1286Z" fill="white"/>
<path d="M111.467 39.8381C111.464 39.7115 111.487 39.5857 111.533 39.4679C111.58 39.3501 111.649 39.2429 111.737 39.1524C111.825 39.0619 111.931 38.99 112.047 38.9409C112.164 38.8918 112.289 38.8666 112.415 38.8666C112.537 38.8665 112.659 38.8913 112.772 38.9396C112.884 38.9878 112.986 39.0585 113.071 39.1474C113.156 39.2363 113.221 39.3415 113.265 39.4566C113.308 39.5718 113.327 39.6945 113.321 39.8173C113.325 39.9396 113.304 40.0615 113.261 40.1758C113.217 40.2901 113.151 40.3945 113.067 40.483C112.982 40.5715 112.881 40.6422 112.769 40.6911C112.657 40.7401 112.537 40.7662 112.415 40.768C112.167 40.7698 111.927 40.6731 111.75 40.4989C111.572 40.3247 111.471 40.0872 111.467 39.8381ZM114.926 39.8381C114.922 39.7128 114.942 39.5878 114.987 39.4706C115.031 39.3533 115.098 39.2462 115.185 39.1556C115.271 39.065 115.375 38.9928 115.49 38.9431C115.605 38.8935 115.728 38.8675 115.853 38.8666C115.977 38.8655 116.099 38.8897 116.212 38.9375C116.326 38.9854 116.428 39.0559 116.514 39.1449C116.599 39.2339 116.666 39.3394 116.709 39.455C116.753 39.5706 116.772 39.6939 116.767 39.8173C116.767 39.9385 116.743 40.0585 116.697 40.1705C116.65 40.2825 116.583 40.3842 116.497 40.4699C116.412 40.5556 116.31 40.6236 116.199 40.67C116.087 40.7163 115.967 40.7402 115.846 40.7402C115.726 40.7402 115.606 40.7163 115.494 40.67C115.383 40.6236 115.281 40.5556 115.196 40.4699C115.11 40.3842 115.043 40.2825 114.996 40.1705C114.95 40.0585 114.926 39.9385 114.926 39.8173V39.8381Z" fill="white"/>
<path d="M114.38 43.0302C114.923 43.0213 115.463 43.1236 115.965 43.3309C116.468 43.5381 116.923 43.846 117.303 44.2357C117.684 44.6253 117.98 45.0886 118.176 45.5972C118.372 46.1058 118.462 46.649 118.441 47.1938C118.481 47.7576 118.407 48.3238 118.222 48.8578C118.038 49.3919 117.746 49.8826 117.366 50.3C116.986 50.7175 116.526 51.053 116.012 51.2861C115.499 51.5192 114.943 51.6449 114.38 51.6557C113.832 51.6651 113.288 51.5638 112.78 51.3579C112.272 51.152 111.811 50.8457 111.424 50.4572C111.036 50.0686 110.731 49.6059 110.526 49.0965C110.32 48.5871 110.219 48.0415 110.229 47.4922C110.204 46.9245 110.292 46.3575 110.488 45.8243C110.684 45.2912 110.984 44.8026 111.37 44.3872C111.757 43.9717 112.222 43.6377 112.739 43.4047C113.256 43.1717 113.813 43.0444 114.38 43.0302ZM114.158 43.6617C113.024 43.6617 112 44.765 112 46.9301C112 49.3033 113.044 51.0173 114.567 51.0173C115.722 51.0173 116.691 50.1777 116.691 47.624C116.691 45.4173 115.798 43.6409 114.158 43.6409V43.6617Z" fill="white"/>
<path d="M84.2425 46.5207C85.0296 46.5207 85.6677 45.8807 85.6677 45.0912C85.6677 44.3018 85.0296 43.6617 84.2425 43.6617C83.4554 43.6617 82.8173 44.3018 82.8173 45.0912C82.8173 45.8807 83.4554 46.5207 84.2425 46.5207Z" fill="white"/>
<path d="M151.989 46.5207C152.776 46.5207 153.414 45.8807 153.414 45.0912C153.414 44.3018 152.776 43.6617 151.989 43.6617C151.202 43.6617 150.564 44.3018 150.564 45.0912C150.564 45.8807 151.202 46.5207 151.989 46.5207Z" fill="white"/>
<path d="M8.52559 42.1767C8.20733 40.9415 7.61233 39.7132 5.97263 39.7132C5.70357 39.6925 5.43323 39.7303 5.18007 39.8241C4.92691 39.9178 4.6969 40.0652 4.50576 40.2562C4.31462 40.4473 4.16685 40.6775 4.07254 40.9311C3.97824 41.1847 3.93962 41.4557 3.95933 41.7256C3.95933 43.0719 4.85182 43.7242 6.31856 44.5014C7.7853 45.2786 9.52186 46.1043 9.52186 48.2139C9.52186 50.1916 7.84757 51.7598 5.44682 51.7598C4.46366 51.7092 3.49465 51.5031 2.57561 51.1492C2.44416 50.6842 2.20201 49.1576 2.07056 48.2763L2.65172 48.1306C2.96305 49.2825 3.78636 51.0382 5.70281 51.0382C5.99994 51.0608 6.29845 51.019 6.57804 50.9156C6.85763 50.8122 7.11175 50.6497 7.32311 50.439C7.53448 50.2283 7.69814 49.9744 7.80296 49.6947C7.90778 49.4149 7.95131 49.1157 7.93059 48.8176C7.93059 47.4297 6.96891 46.7844 5.52984 46.0419C4.33985 45.3688 2.47875 44.4528 2.47875 42.3363C2.47875 40.546 3.8002 39.0748 6.25629 39.0748C7.11143 39.1165 7.96238 39.2208 8.80233 39.3871C8.87843 40.081 8.95454 40.8652 9.09983 42.0795L8.52559 42.1767Z" fill="white"/>
<path d="M20.0934 51.4476C19.0903 51.4476 18.0179 51.4476 17.6028 51.4892C17.4851 51.3574 14.5863 47.8877 14.4548 47.7767C14.2127 47.4783 14.0812 47.3811 13.9152 47.3811C13.8029 47.3764 13.6907 47.3905 13.5831 47.4228V49.5046C13.5831 50.7536 13.673 50.83 14.8838 50.941V51.4615H10.7672V50.941C12.0195 50.83 12.1094 50.6981 12.1094 49.5046V40.5737C12.1094 39.3593 11.978 39.3177 10.8226 39.1512V38.6654C11.7672 38.5683 12.6965 38.3562 13.59 38.0339V46.937C14.0438 46.8468 14.4592 46.6191 14.78 46.2847C15.2829 45.7584 15.7455 45.1947 16.1637 44.5985C16.5581 44.0572 16.4058 43.9046 15.5134 43.8352V43.3147L19.3462 43.1482V43.6478C18.8728 43.6602 18.4073 43.7729 17.9804 43.9786C17.5535 44.1844 17.1749 44.4784 16.8694 44.8414C16.5165 45.2161 15.7002 46.1113 15.3058 46.597C15.7209 47.1244 17.6028 49.2756 18.2116 49.9695C19.1041 50.8647 19.367 50.9202 20.0934 50.9549V51.4476Z" fill="white"/>
<path d="M26.6938 51.6765C26.3729 51.6755 26.0623 51.5627 25.8152 51.3573C25.599 51.1107 25.4574 50.8074 25.407 50.483C24.6597 50.9826 23.7465 51.6765 23.1723 51.6765C22.5679 51.6729 21.9897 51.429 21.5643 50.9985C21.139 50.5679 20.9011 49.9858 20.903 49.3796C20.903 48.4636 21.408 47.8669 22.432 47.513C23.4522 47.2201 24.4363 46.8128 25.3654 46.2986V45.9239C25.3654 44.5985 24.6736 43.8421 23.7327 43.8421C23.563 43.8405 23.3952 43.8785 23.2427 43.9532C23.0902 44.0279 22.9571 44.1371 22.854 44.2723C22.6243 44.6478 22.4561 45.0578 22.3559 45.4867C22.3327 45.6116 22.2653 45.7238 22.1661 45.8029C22.067 45.8819 21.9427 45.9224 21.8162 45.9169C21.6015 45.908 21.3972 45.8216 21.2409 45.6738C21.0846 45.5259 20.9867 45.3264 20.9652 45.112C20.9652 44.8552 21.2005 44.6262 21.5741 44.3695C22.371 43.7522 23.2805 43.2972 24.2516 43.0302C24.5998 43.0149 24.9474 43.0745 25.2707 43.2051C25.5941 43.3356 25.8859 43.5341 26.1265 43.7872C26.367 44.0403 26.5507 44.3421 26.6653 44.6724C26.7799 45.0026 26.8226 45.3536 26.7907 45.7018V49.2755C26.7907 50.136 27.102 50.3997 27.441 50.3997C27.685 50.3873 27.9224 50.3158 28.1329 50.1915L28.3128 50.712L26.6938 51.6765ZM25.3101 46.9509C24.9019 47.1591 24.0094 47.5477 23.5805 47.735C22.8886 48.0542 22.4458 48.4289 22.4458 49.1229C22.4393 49.3057 22.469 49.488 22.533 49.6594C22.5971 49.8307 22.6943 49.9876 22.819 50.1211C22.9438 50.2546 23.0936 50.362 23.2599 50.4372C23.4262 50.5125 23.6057 50.5539 23.788 50.5593C24.361 50.5148 24.8999 50.2691 25.3101 49.8654V46.9509Z" fill="white"/>
<path d="M28.7347 43.6479C29.6617 43.4868 30.5671 43.219 31.433 42.8499V44.3418C31.4883 44.3002 32.9758 43.4466 33.0519 43.405C33.3797 43.2016 33.7483 43.0737 34.1312 43.0303C34.5834 43.0379 35.0293 43.1372 35.4423 43.3221C35.8553 43.507 36.2267 43.7737 36.5343 44.1062C36.8419 44.4387 37.0793 44.8301 37.2323 45.257C37.3853 45.6838 37.4506 46.1373 37.4244 46.5901C37.4244 49.4283 35.1897 51.2186 32.7544 51.6697C32.2962 51.6662 31.8446 51.5595 31.433 51.3574V53.8555C31.433 55.2434 31.5852 55.3544 33.0173 55.4793V56.0067H28.6033V55.4793C29.814 55.3544 29.987 55.2573 29.987 54.0082V45.5145C29.987 44.3973 29.987 44.321 28.7624 44.1267L28.7347 43.6479ZM31.433 50.032C31.9198 50.4712 32.5493 50.7178 33.2041 50.7259C34.8231 50.7259 35.8609 49.3381 35.8609 47.2563C35.8609 45.1745 34.6916 44.1059 33.3702 44.1059C32.661 44.1828 31.9886 44.4622 31.433 44.9108V50.032Z" fill="white"/>
<path d="M44.7167 51.6766C44.3958 51.6756 44.0852 51.5628 43.838 51.3574C43.6093 51.1149 43.4556 50.8113 43.3952 50.483C42.648 50.9827 41.7348 51.6766 41.1605 51.6766C40.5562 51.6729 39.978 51.4291 39.5526 50.9985C39.1272 50.568 38.8894 49.9858 38.8913 49.3797C38.8893 48.9397 39.0402 48.5127 39.3179 48.1721C39.5957 47.8315 39.983 47.5984 40.4133 47.513C41.4357 47.2199 42.422 46.8126 43.3537 46.2986V45.9239C43.3537 44.5985 42.6619 43.8421 41.721 43.8421C41.5512 43.8405 41.3835 43.8786 41.231 43.9532C41.0785 44.0279 40.9454 44.1372 40.8423 44.2724C40.6126 44.6479 40.4444 45.0579 40.3442 45.4868C40.3209 45.6116 40.2536 45.7239 40.1544 45.8029C40.0553 45.882 39.931 45.9225 39.8045 45.917C39.5947 45.9017 39.397 45.8125 39.2464 45.6652C39.0958 45.5179 39.0018 45.322 38.9812 45.112C38.9812 44.8553 39.2233 44.6263 39.5969 44.3695C40.3938 43.7523 41.3034 43.2973 42.2744 43.0303C42.6202 43.0188 42.9644 43.0815 43.2841 43.2139C43.6038 43.3463 43.8917 43.5456 44.1287 43.7983C44.3657 44.0511 44.5462 44.3516 44.6583 44.6798C44.7705 45.008 44.8116 45.3565 44.779 45.7019V49.2756C44.779 50.1361 45.0972 50.3998 45.4293 50.3998C45.6736 50.3893 45.9115 50.3177 46.1212 50.1916L46.308 50.712L44.7167 51.6766ZM43.333 46.9509C42.9248 47.1591 42.0323 47.5477 41.6033 47.7351C40.9115 48.0543 40.4687 48.429 40.4687 49.1229C40.4622 49.3058 40.4919 49.4881 40.5559 49.6594C40.62 49.8307 40.7172 49.9877 40.8419 50.1212C40.9667 50.2547 41.1165 50.3621 41.2828 50.4373C41.4491 50.5125 41.6286 50.554 41.8109 50.5594C42.3838 50.5149 42.9228 50.2692 43.333 49.8654V46.9509Z" fill="white"/>
<path d="M52.3894 51.4476V50.9271C53.4687 50.8161 53.5794 50.6843 53.5794 49.4144V46.3403C53.5794 45.0288 53.1158 44.1544 51.8913 44.1544C51.104 44.2119 50.3653 44.5577 49.8157 45.1259V49.4907C49.8157 50.7814 49.9264 50.8161 51.0264 50.9271V51.4476H47.0344V50.9271C48.259 50.7953 48.3766 50.7259 48.3766 49.4907V45.6464C48.3766 44.432 48.2452 44.3765 47.242 44.2099V43.7242C48.1385 43.5914 49.0133 43.3394 49.8434 42.9747V44.4528C50.217 44.1891 50.6252 43.9115 51.1095 43.5923C51.5587 43.2601 52.095 43.0671 52.6523 43.0372C54.1398 43.0372 55.0738 44.1336 55.0738 45.9447V49.4907C55.0738 50.7606 55.1845 50.8161 56.2638 50.9271V51.4476H52.3894Z" fill="white"/>
<path d="M66.4202 50.9826C65.4424 51.1402 64.4779 51.3722 63.5352 51.6766V50.4622C63.1962 50.6704 62.7119 50.9271 62.3798 51.1561C61.9397 51.4489 61.4374 51.6342 60.913 51.6974C59.4186 51.6974 57.4537 50.2054 57.4537 47.5893C57.497 46.3443 58.0315 45.1676 58.9397 44.3178C59.8479 43.4681 61.0555 43.0149 62.2967 43.058C62.7271 43.0529 63.1552 43.1209 63.5628 43.2592V40.4974C63.5628 39.3038 63.4314 39.2622 62.1099 39.1512V38.6654C63.0985 38.5343 64.0749 38.3231 65.0296 38.0339V49.2756C65.0296 50.2471 65.161 50.3442 65.8529 50.4206H66.4479L66.4202 50.9826ZM63.5352 44.7373C63.3112 44.4298 63.0158 44.1819 62.6745 44.015C62.3333 43.8481 61.9566 43.7673 61.5772 43.7797C60.6847 43.7797 59.1073 44.3834 59.1073 47.0689C59.1073 49.3241 60.491 50.5385 61.6879 50.5385C62.3593 50.4993 63.0033 50.2574 63.5352 49.8446V44.7373Z" fill="white"/>
<path d="M74.1344 49.8655C73.7848 50.3719 73.3296 50.7962 72.8004 51.1089C72.2712 51.4216 71.6806 51.6153 71.0695 51.6766C68.8002 51.6766 67.4165 49.8099 67.4165 47.6588C67.3981 46.4678 67.8223 45.3126 68.6065 44.4181C68.9448 44.005 69.3661 43.6679 69.8429 43.4288C70.3197 43.1896 70.8413 43.0539 71.3739 43.0303C72.1307 43.0429 72.8526 43.352 73.3852 43.8914C73.9179 44.4308 74.219 45.1578 74.2243 45.917C74.2243 46.2917 74.1482 46.4583 73.8507 46.5346C73.5532 46.6109 71.0833 46.7775 68.8832 46.8538C68.8279 49.352 70.3499 50.379 71.6506 50.379C72.4743 50.3628 73.2589 50.024 73.8369 49.4352L74.1344 49.8655ZM70.9311 43.7242C70.0801 43.7242 69.243 44.5222 68.9801 46.035C70.0248 46.035 71.0556 46.035 72.1626 45.9795C72.4947 45.9795 72.6123 45.8893 72.6123 45.6047C72.6312 45.3692 72.6021 45.1323 72.5268 44.9084C72.4515 44.6845 72.3315 44.4784 72.1742 44.3025C72.017 44.1265 71.8257 43.9845 71.6119 43.8851C71.3982 43.7857 71.1666 43.731 70.9311 43.7242Z" fill="white"/>
<path d="M103.262 51.4476V50.9271C104.784 50.7814 104.839 50.6704 104.825 48.6719V41.0387C103.303 44.4597 100.847 49.796 100.197 51.4476H99.7124C99.0759 49.7544 96.945 44.6193 95.5613 41.2399C95.243 47.7767 95.2223 49.2478 95.2223 49.567C95.2223 50.6149 95.7066 50.7606 96.9727 50.8924V51.4129H92.5656V50.8924C93.6448 50.7814 94.0876 50.5594 94.2398 49.5532C94.3505 48.7274 94.3713 48.0543 94.8556 41.226C94.9248 40.2545 94.7449 39.9353 93.1052 39.7896V39.2622H96.3431L100.453 48.7274L104.867 39.2622H108.118V39.7896C106.52 39.977 106.313 40.1435 106.354 41.4481L106.43 48.6164C106.5 50.6149 106.555 50.6981 108.195 50.8716V51.3921L103.262 51.4476Z" fill="white"/>
<path d="M123.339 51.4338C123.093 51.5733 122.819 51.6563 122.537 51.6766C121.347 51.6766 120.717 50.9827 120.717 49.4561V44.0226H119.43L119.354 43.8005L119.859 43.2593H120.717V41.691C121.07 41.3163 121.61 40.8305 121.963 40.4558L122.239 40.4974C122.205 41.2816 122.184 42.3641 122.184 43.2732H124.343C124.42 43.3921 124.451 43.5353 124.431 43.6758C124.411 43.8164 124.34 43.9446 124.232 44.0365H122.219V48.8176C122.219 50.3235 122.814 50.608 123.298 50.608C123.694 50.5962 124.082 50.4942 124.432 50.3096L124.599 50.7953L123.339 51.4338Z" fill="white"/>
<path d="M131.953 49.8655C131.601 50.3745 131.143 50.8003 130.61 51.1131C130.077 51.4259 129.482 51.6183 128.867 51.6766C126.598 51.6766 125.221 49.8099 125.221 47.6588C125.205 46.4669 125.631 45.3116 126.418 44.4181C126.756 44.005 127.178 43.6679 127.655 43.4288C128.131 43.1896 128.653 43.0539 129.185 43.0303C129.942 43.0429 130.664 43.352 131.197 43.8914C131.729 44.4308 132.031 45.1578 132.036 45.917C132.036 46.2917 131.96 46.4583 131.662 46.5346C131.365 46.6109 128.895 46.7775 126.695 46.8538C126.639 49.352 128.162 50.379 129.462 50.379C130.277 50.3538 131.051 50.0131 131.621 49.4283L131.953 49.8655ZM128.736 43.7242C127.878 43.7242 127.041 44.5222 126.778 46.035C127.823 46.035 128.853 46.035 129.96 45.9795C130.292 45.9795 130.41 45.8893 130.41 45.6047C130.429 45.3698 130.4 45.1334 130.325 44.91C130.25 44.6866 130.131 44.4807 129.974 44.3049C129.818 44.1291 129.627 43.987 129.414 43.8871C129.202 43.7873 128.971 43.7319 128.736 43.7242Z" fill="white"/>
<path d="M138.477 51.4476V50.9271C139.556 50.8161 139.667 50.6843 139.667 49.4144V46.3403C139.667 45.0288 139.204 44.1544 137.979 44.1544C137.192 44.2119 136.453 44.5577 135.903 45.1259V49.4907C135.903 50.7814 136.014 50.8161 137.114 50.9271V51.4476H133.094V50.9271C134.319 50.7953 134.437 50.7259 134.437 49.4907V45.6464C134.437 44.432 134.305 44.3765 133.295 44.2099V43.7242C134.194 43.5924 135.071 43.3403 135.903 42.9747V44.4528C136.277 44.1891 136.685 43.9115 137.17 43.5923C137.619 43.2601 138.155 43.0671 138.712 43.0372C140.2 43.0372 141.134 44.1336 141.134 45.9447V49.4907C141.134 50.7606 141.245 50.8161 142.324 50.9271V51.4476H138.477Z" fill="white"/>
<path d="M173.928 39.8451C172.385 39.9908 172.233 40.088 172.233 41.6562V49.1368C172.233 50.7051 172.406 50.7606 173.928 50.9271V51.4476H168.94V50.9271C170.483 50.7398 170.635 50.7051 170.635 49.1368V45.4035H164.27V49.1368C164.27 50.6843 164.422 50.7398 165.944 50.9271V51.4476H161.011V50.9271C162.519 50.7606 162.685 50.7051 162.685 49.1368V41.6424C162.685 40.0741 162.519 39.9769 161.011 39.8312V39.3038H165.979V39.8312C164.491 39.9561 164.304 40.088 164.304 41.6424V44.6054H170.669V41.6424C170.669 40.088 170.462 39.9561 168.974 39.8312V39.3038H173.963L173.928 39.8451Z" fill="white"/>
<path d="M175.021 51.4475V50.9271C176.19 50.8161 176.322 50.7258 176.322 49.456V45.6116C176.322 44.4527 176.266 44.3764 175.146 44.2237V43.7241C176.05 43.5962 176.937 43.3633 177.789 43.0302V49.4907C177.789 50.7605 177.92 50.8785 179.131 50.9618V51.4822L175.021 51.4475ZM176.924 41.1705C176.665 41.1601 176.42 41.052 176.238 40.8679C176.056 40.6838 175.95 40.4374 175.941 40.1781C175.939 40.0443 175.962 39.9112 176.012 39.7867C176.061 39.6622 176.134 39.5488 176.228 39.4532C176.321 39.3575 176.433 39.2815 176.556 39.2297C176.679 39.1778 176.811 39.1511 176.944 39.1511C177.074 39.1547 177.202 39.1842 177.321 39.238C177.439 39.2919 177.546 39.3689 177.634 39.4645C177.722 39.5602 177.791 39.6726 177.835 39.7952C177.879 39.9177 177.899 40.0479 177.892 40.1781C177.891 40.4372 177.789 40.6855 177.608 40.8706C177.427 41.0558 177.182 41.1633 176.924 41.1705Z" fill="white"/>
<path d="M184.894 45.4798C184.562 44.3973 184.043 43.6479 182.908 43.6479C182.749 43.643 182.59 43.6711 182.441 43.7306C182.293 43.7901 182.158 43.8796 182.046 43.9935C181.934 44.1075 181.846 44.2434 181.788 44.3929C181.731 44.5424 181.705 44.7021 181.711 44.8622C181.711 45.6811 182.327 46.0766 183.33 46.5277C184.859 47.2216 185.731 47.7906 185.731 49.0813C185.731 50.7953 184.167 51.6766 182.701 51.6766C181.93 51.6754 181.171 51.4898 180.487 51.1354C180.397 50.5941 180.224 49.5254 180.155 48.9148L180.694 48.8176C181.026 50.0112 181.677 51.0382 182.977 51.0382C183.15 51.0476 183.322 51.0218 183.484 50.9623C183.646 50.9028 183.795 50.8108 183.92 50.6921C184.046 50.5733 184.146 50.4302 184.215 50.2714C184.283 50.1126 184.319 49.9414 184.32 49.7683C184.32 48.9287 183.815 48.4845 182.791 48.0335C181.587 47.4784 180.397 46.8608 180.397 45.4451C180.397 44.0295 181.587 43.0303 183.33 43.0303C183.945 43.0522 184.557 43.1335 185.157 43.2731C185.212 43.7173 185.344 44.8969 185.434 45.3549L184.894 45.4798Z" fill="white"/>
<path d="M190.456 51.4338C190.21 51.5733 189.936 51.6563 189.654 51.6766C188.464 51.6766 187.834 50.9827 187.834 49.4561V44.0226H186.547L186.471 43.8005L186.976 43.2593H187.834V41.691C188.187 41.3163 188.727 40.8305 189.08 40.4558L189.356 40.4974C189.322 41.2816 189.301 42.3641 189.301 43.2732H191.453C191.53 43.3921 191.562 43.5353 191.541 43.6758C191.521 43.8164 191.45 43.9446 191.342 44.0365H189.329V48.8176C189.329 50.3235 189.924 50.608 190.408 50.608C190.804 50.5962 191.192 50.4942 191.543 50.3096L191.709 50.7953L190.456 51.4338Z" fill="white"/>
<path d="M196.448 43.0302C196.991 43.0223 197.53 43.1253 198.031 43.333C198.533 43.5407 198.988 43.8487 199.367 44.2382C199.746 44.6278 200.043 45.0907 200.238 45.5989C200.433 46.107 200.523 46.6496 200.502 47.1938C200.543 47.757 200.468 48.3226 200.284 48.8562C200.1 49.3898 199.809 49.8802 199.43 50.2976C199.051 50.715 198.591 51.0506 198.078 51.2841C197.565 51.5176 197.011 51.644 196.448 51.6557C195.9 51.6651 195.356 51.5639 194.848 51.3579C194.34 51.152 193.879 50.8457 193.492 50.4572C193.104 50.0687 192.799 49.6059 192.594 49.0965C192.388 48.5872 192.287 48.0415 192.297 47.4922C192.272 46.9245 192.36 46.3575 192.556 45.8244C192.752 45.2912 193.052 44.8026 193.438 44.3872C193.825 43.9717 194.29 43.6377 194.807 43.4047C195.324 43.1717 195.882 43.0444 196.448 43.0302ZM196.22 43.6617C195.085 43.6617 194.061 44.765 194.061 46.9301C194.061 49.2964 195.106 51.0173 196.635 51.0173C197.783 51.0173 198.752 50.1777 198.752 47.6171C198.752 45.4451 197.859 43.6686 196.22 43.6686V43.6617Z" fill="white"/>
<path d="M206.037 51.4475H201.761V50.9271C202.931 50.8161 203.048 50.7259 203.048 49.5392V45.6532C203.048 44.425 202.972 44.3695 201.893 44.2654V43.7241C202.797 43.586 203.679 43.3269 204.515 42.9539V45.0356C205.165 44.0641 205.947 43.0441 206.881 43.0441C207.011 43.0277 207.143 43.0382 207.269 43.075C207.395 43.1117 207.512 43.174 207.614 43.2578C207.715 43.3417 207.798 43.4454 207.857 43.5626C207.917 43.6797 207.952 43.8079 207.96 43.9392C207.948 44.1502 207.884 44.3547 207.773 44.5341C207.661 44.7135 207.507 44.8621 207.324 44.9662C207.252 45.0198 207.163 45.0452 207.074 45.0375C206.985 45.0298 206.901 44.9897 206.84 44.9246C206.741 44.7923 206.615 44.6824 206.471 44.6023C206.326 44.5222 206.167 44.4736 206.002 44.4597C205.615 44.4597 204.923 45.0356 204.515 45.9933V49.4629C204.515 50.6981 204.605 50.7883 206.037 50.8993V51.4475Z" fill="white"/>
<path d="M208.881 51.4475V50.9271C210.057 50.8161 210.188 50.7258 210.188 49.456V45.6116C210.188 44.4527 210.133 44.3764 209.012 44.2237V43.7241C209.917 43.5952 210.803 43.3624 211.655 43.0302V49.4907C211.655 50.7605 211.786 50.8785 212.997 50.9618V51.4822L208.881 51.4475ZM210.825 41.1705C210.566 41.1601 210.321 41.052 210.139 40.8679C209.957 40.6838 209.851 40.4374 209.842 40.1781C209.84 40.046 209.863 39.9146 209.911 39.7915C209.959 39.6683 210.03 39.5559 210.121 39.4605C210.213 39.3651 210.322 39.2887 210.442 39.2356C210.563 39.1825 210.693 39.1538 210.825 39.1511C210.955 39.1547 211.083 39.1842 211.201 39.238C211.319 39.2919 211.426 39.3689 211.514 39.4645C211.602 39.5602 211.671 39.6726 211.715 39.7952C211.76 39.9177 211.779 40.0479 211.773 40.1781C211.771 40.4337 211.672 40.6791 211.496 40.8637C211.319 41.0482 211.079 41.158 210.825 41.1705Z" fill="white"/>
<path d="M219.916 51.6766C219.593 51.6643 219.284 51.5391 219.044 51.3227C218.819 51.0902 218.663 50.7994 218.594 50.483C217.854 50.9826 216.941 51.6766 216.36 51.6766C215.755 51.6729 215.177 51.4291 214.752 50.9985C214.326 50.568 214.088 49.9858 214.09 49.3797C214.09 48.4637 214.595 47.8669 215.619 47.513C216.641 47.2186 217.627 46.8113 218.56 46.2986V45.9239C218.56 44.5985 217.868 43.8421 216.92 43.8421C216.751 43.8405 216.584 43.8786 216.433 43.9533C216.282 44.028 216.15 44.1373 216.048 44.2724C215.813 44.6458 215.642 45.0563 215.543 45.4867C215.52 45.6116 215.453 45.7239 215.353 45.8029C215.254 45.882 215.13 45.9225 215.003 45.917C214.795 45.9001 214.599 45.8102 214.45 45.6631C214.3 45.5159 214.207 45.3209 214.187 45.112C214.187 44.8553 214.429 44.6263 214.796 44.3695C215.595 43.751 216.507 43.2959 217.48 43.0302C217.826 43.0179 218.17 43.0796 218.49 43.2112C218.81 43.3428 219.099 43.5412 219.336 43.7933C219.574 44.0454 219.755 44.3454 219.868 44.6733C219.981 45.0012 220.023 45.3494 219.992 45.6949V49.2756C219.992 50.136 220.303 50.3997 220.642 50.3997C220.886 50.3873 221.123 50.3159 221.334 50.1916L221.521 50.712L219.916 51.6766ZM218.532 46.9509C218.117 47.1591 217.224 47.5477 216.802 47.7351C216.11 48.0543 215.668 48.429 215.668 49.1229C215.664 49.3075 215.697 49.4909 215.765 49.6625C215.833 49.8341 215.934 49.9904 216.063 50.1223C216.192 50.2541 216.346 50.3588 216.515 50.4303C216.685 50.5018 216.867 50.5386 217.051 50.5385C217.626 50.4927 218.167 50.2473 218.58 49.8446L218.532 46.9509Z" fill="white"/>
</g>
<defs>
<clipPath id="clip0">
<rect x="0.5" y="0.00671387" width="221" height="56" fill="white"/>
</clipPath>
</defs>
</svg>
