<svg width="17" height="17" viewBox="0 0 17 17" fill="none" xmlns="http://www.w3.org/2000/svg">
<path d="M14.1665 9.20833H2.12484C1.73525 9.20833 1.4165 9.52708 1.4165 9.91667V14.1667C1.4165 14.5562 1.73525 14.875 2.12484 14.875H14.1665C14.5561 14.875 14.8748 14.5562 14.8748 14.1667V9.91667C14.8748 9.52708 14.5561 9.20833 14.1665 9.20833ZM14.1665 2.125H2.12484C1.73525 2.125 1.4165 2.44375 1.4165 2.83333V7.08333C1.4165 7.47292 1.73525 7.79167 2.12484 7.79167H14.1665C14.5561 7.79167 14.8748 7.47292 14.8748 7.08333V2.83333C14.8748 2.44375 14.5561 2.125 14.1665 2.125Z" fill="black"/>
</svg>
