<svg width="23" height="23" viewBox="0 0 23 23" fill="none" xmlns="http://www.w3.org/2000/svg">
<path d="M11.3226 0.212463C5.06628 0.212463 0 5.18535 0 11.3127C0 17.44 5.06628 22.4128 11.3226 22.4128C17.5903 22.4128 22.6679 17.44 22.6679 11.3127C22.6679 5.18535 17.5903 0.212463 11.3226 0.212463ZM19.1771 6.87258H15.8335C15.4709 5.48505 14.9495 4.15303 14.2695 2.92091C16.3549 3.62022 18.089 5.04105 19.1771 6.87258ZM11.334 2.4769C12.2747 3.80892 13.0114 5.28525 13.4987 6.87258H9.16918C9.65654 5.28525 10.3932 3.80892 11.334 2.4769ZM2.56148 13.5327C2.38013 12.8223 2.26679 12.0786 2.26679 11.3127C2.26679 10.5467 2.38013 9.80303 2.56148 9.09261H6.39235C6.30168 9.82523 6.23368 10.5578 6.23368 11.3127C6.23368 12.0675 6.30168 12.8001 6.39235 13.5327H2.56148ZM3.49086 15.7527H6.83438C7.19707 17.1403 7.71843 18.4723 8.39847 19.7044C6.31302 19.0051 4.57892 17.5954 3.49086 15.7527ZM6.83438 6.87258H3.49086C4.57892 5.02995 6.31302 3.62022 8.39847 2.92091C7.71843 4.15303 7.19707 5.48505 6.83438 6.87258ZM11.334 20.1484C10.3932 18.8164 9.65654 17.3401 9.16918 15.7527H13.4987C13.0114 17.3401 12.2747 18.8164 11.334 20.1484ZM13.9861 13.5327H8.68182C8.57981 12.8001 8.50047 12.0675 8.50047 11.3127C8.50047 10.5578 8.57981 9.81413 8.68182 9.09261H13.9861C14.0881 9.81413 14.1675 10.5578 14.1675 11.3127C14.1675 12.0675 14.0881 12.8001 13.9861 13.5327ZM14.2695 19.7044C14.9495 18.4723 15.4709 17.1403 15.8335 15.7527H19.1771C18.089 17.5843 16.3549 19.0051 14.2695 19.7044ZM16.2756 13.5327C16.3662 12.8001 16.4342 12.0675 16.4342 11.3127C16.4342 10.5578 16.3662 9.82523 16.2756 9.09261H20.1064C20.2878 9.80303 20.4011 10.5467 20.4011 11.3127C20.4011 12.0786 20.2878 12.8223 20.1064 13.5327H16.2756Z" fill="white"/>
</svg>
