<svg width="1152" height="132" viewBox="0 0 1152 132" fill="none" xmlns="http://www.w3.org/2000/svg">
<path d="M1283 21.7873V132H-34V65.4597C-16.2569 54.2211 1.00434 42.659 19.7112 32.4032C40.789 20.8655 63.7076 10.9883 91.2909 5.08511C145.108 -6.43429 198.193 3.39413 249.032 16.9464C304.285 31.6951 358.459 43.9532 418.435 48.147C486.969 52.9697 560.679 49.9784 624.259 31.8844C651.717 24.0643 677.488 14.6816 707.761 12.0993C739.97 9.34613 772.835 12.0993 804.35 16.5557C891.398 28.8931 975.122 44.9116 1065.07 46.4683C1139.67 47.7624 1216.12 44.0325 1283 21.7873Z" fill="#18595B"/>
</svg>
