<svg width="23" height="25" viewBox="0 0 23 25" fill="none" xmlns="http://www.w3.org/2000/svg">
<path d="M21.558 0.359985H1.55798C1.077 0.359985 0.688416 0.788985 0.688416 1.31999V23.4C0.688416 23.931 1.077 24.36 1.55798 24.36H21.558C22.0389 24.36 22.4275 23.931 22.4275 23.4V1.31999C22.4275 0.788985 22.0389 0.359985 21.558 0.359985ZM19.0471 7.36498H17.3107C15.9493 7.36498 15.6857 8.07898 15.6857 9.12898V11.442H18.9357L18.5118 15.063H15.6857V24.36H12.2971V15.066H9.46286V11.442H12.2971V8.77199C12.2971 5.67299 14.0118 3.98399 16.5172 3.98399C17.7183 3.98399 18.7482 4.08299 19.0498 4.12799V7.36498H19.0471Z" fill="white"/>
</svg>
