<svg width="33" height="32" viewBox="0 0 33 32" fill="none" xmlns="http://www.w3.org/2000/svg">
<path d="M31.68 0H1.32C0.589875 0 0 0.568978 0 1.27324V30.5577C0 31.262 0.589875 31.8309 1.32 31.8309H31.68C32.4101 31.8309 33 31.262 33 30.5577V1.27324C33 0.568978 32.4101 0 31.68 0ZM27.8685 9.29065H25.2326C23.166 9.29065 22.7659 10.2376 22.7659 11.6302V14.6979H27.6994L27.0559 19.5004H22.7659V31.8309H17.622V19.5044H13.3196V14.6979H17.622V11.1567C17.622 7.04657 20.2249 4.80647 24.0281 4.80647C25.8514 4.80647 27.4148 4.93777 27.8726 4.99746V9.29065H27.8685Z" fill="black"/>
</svg>
