<svg width="48" height="51" viewBox="0 0 48 51" fill="none" xmlns="http://www.w3.org/2000/svg">
<path d="M0.911771 16.7963C3.61628 9.11486 9.86462 4.51042 16.6128 0.859256C18.4482 -0.134508 21.3728 -0.244926 23.417 0.417583C28.2664 1.96344 32.8995 4.21965 37.6446 6.11148C42.3896 8.00331 45.5641 6.33968 44.0869 8.23887C40.17 13.2555 34.899 14.8161 29.061 12.1808C26.3863 10.9699 23.8385 9.50132 21.1154 8.38242C16.6762 6.54211 12.1625 6.76295 8.17104 10.1049C3.73192 13.8224 1.95254 18.6219 3.42603 24.2974C5.22406 31.2095 10.0735 35.4864 16.4785 38.2064C24.122 41.4453 31.8588 40.7828 39.4612 38.2064C43.1916 36.9329 45.8289 34.1945 45.8028 30.0501C45.8028 28.2098 45.2396 25.4494 44.0048 24.7795C42.4754 23.9551 39.7522 24.3673 37.9616 25.1476C35.2198 26.3695 28.7253 32.9725 21.3653 32.0266C16.8143 31.4377 12.9832 26.5057 13.2107 24.8568C13.3898 23.576 13.4681 24.8568 20.0336 23.9403C24.9725 23.2521 28.5873 19.6193 31.2806 17.9888C36.3762 14.9008 40.7146 15.0443 44.5121 19.5567C51.5401 27.9264 46.963 40.0209 39.4873 45.3688C26.5952 54.5703 6.82438 49.8334 1.73245 33.7602C1.49371 33.0388 -1.44954 24.8531 0.911771 16.7963Z" fill="#0C0C0C"/>
</svg>
