<svg width="186" height="233" viewBox="0 0 186 233" fill="none" xmlns="http://www.w3.org/2000/svg">
<path d="M-12.4673 78.2349C-1.08582 42.4558 25.2093 21.009 53.608 4.00231C61.3317 -0.62652 73.6394 -1.14083 82.2422 1.94505C102.65 9.14544 122.148 19.6546 142.117 28.4665C162.085 37.2784 175.445 29.5294 169.228 38.3756C152.744 61.7426 130.562 69.0116 105.994 56.7366C94.7382 51.0963 84.0161 44.2559 72.5562 39.0442C53.8749 30.4723 34.8796 31.501 18.0821 47.0675C-0.59917 64.3828 -8.08738 86.7383 -1.88645 113.174C5.68026 145.37 26.0884 165.291 53.0428 177.96C85.2092 193.047 117.768 189.961 149.762 177.96C165.46 172.029 176.559 159.274 176.449 139.97C176.449 131.398 174.079 118.54 168.883 115.42C162.446 111.58 150.986 113.5 143.451 117.134C131.912 122.826 104.581 153.582 73.608 149.176C54.4557 146.433 38.3333 123.46 39.2909 115.78C40.0444 109.814 40.3741 115.78 68.0036 111.511C88.7885 108.305 104 91.3842 115.335 83.7895C136.779 69.4059 155.036 70.0745 171.018 91.0928C200.594 130.078 181.332 186.412 149.872 211.322C95.6174 254.182 12.4149 232.118 -9.0136 157.251C-10.0183 153.891 -22.4045 115.763 -12.4673 78.2349Z" fill="url(#paint0_linear)"/>
<defs>
<linearGradient id="paint0_linear" x1="154.133" y1="27.8075" x2="-14.5251" y2="178.844" gradientUnits="userSpaceOnUse">
<stop stop-color="#F6F2E8"/>
<stop offset="1" stop-color="#112E33" stop-opacity="0"/>
</linearGradient>
</defs>
</svg>
