<svg width="22" height="25" viewBox="0 0 22 25" fill="none" xmlns="http://www.w3.org/2000/svg">
<path d="M11.0695 8.35828C9.07367 8.35828 7.44488 10.1565 7.44488 12.36C7.44488 14.5635 9.07367 16.3617 11.0695 16.3617C13.0654 16.3617 14.6942 14.5635 14.6942 12.36C14.6942 10.1565 13.0654 8.35828 11.0695 8.35828ZM21.9408 12.36C21.9408 10.7029 21.9544 9.06076 21.8701 7.40664C21.7858 5.48534 21.3888 3.78019 20.1162 2.37524C18.8409 0.967288 17.2992 0.531994 15.5589 0.438931C14.0579 0.345868 12.5705 0.360878 11.0723 0.360878C9.57128 0.360878 8.08389 0.345868 6.58562 0.438931C4.84535 0.531994 3.30086 0.97029 2.02829 2.37524C0.752993 3.78319 0.358713 5.48534 0.274419 7.40664C0.190124 9.06376 0.20372 10.7059 0.20372 12.36C0.20372 14.0141 0.190124 15.6592 0.274419 17.3133C0.358713 19.2346 0.755713 20.9398 2.02829 22.3447C3.30358 23.7527 4.84535 24.188 6.58562 24.281C8.08661 24.3741 9.574 24.3591 11.0723 24.3591C12.5732 24.3591 14.0606 24.3741 15.5589 24.281C17.2992 24.188 18.8437 23.7497 20.1162 22.3447C21.3915 20.9368 21.7858 19.2346 21.8701 17.3133C21.9571 15.6592 21.9408 14.0171 21.9408 12.36ZM11.0695 18.5171C7.98328 18.5171 5.49251 15.7673 5.49251 12.36C5.49251 8.95268 7.98328 6.20283 11.0695 6.20283C14.1558 6.20283 16.6466 8.95268 16.6466 12.36C16.6466 15.7673 14.1558 18.5171 11.0695 18.5171ZM16.875 7.38863C16.1544 7.38863 15.5725 6.74619 15.5725 5.95065C15.5725 5.15512 16.1544 4.51268 16.875 4.51268C17.5956 4.51268 18.1775 5.15512 18.1775 5.95065C18.1777 6.13956 18.1441 6.32665 18.0788 6.50122C18.0134 6.67579 17.9174 6.83441 17.7965 6.96798C17.6755 7.10156 17.5318 7.20747 17.3737 7.27965C17.2156 7.35183 17.0461 7.38886 16.875 7.38863Z" fill="white"/>
</svg>
