<svg width="33" height="32" viewBox="0 0 33 32" fill="black" xmlns="http://www.w3.org/2000/svg">
<path d="M16.4956 10.6081C13.4658 10.6081 10.9933 12.993 10.9933 15.9155C10.9933 18.8379 13.4658 21.2229 16.4956 21.2229C19.5253 21.2229 21.9978 18.8379 21.9978 15.9155C21.9978 12.993 19.5253 10.6081 16.4956 10.6081ZM32.9982 15.9155C32.9982 13.7176 33.0188 11.5397 32.8908 9.3459C32.7629 6.7977 32.1602 4.53618 30.2285 2.67281C28.2926 0.805458 25.9522 0.228133 23.3104 0.104705C21.0319 -0.0187236 18.7741 0.00118429 16.4997 0.00118429C14.2212 0.00118429 11.9633 -0.0187236 9.68897 0.104705C7.04723 0.228133 4.70269 0.80944 2.77092 2.67281C0.835026 4.54016 0.236507 6.7977 0.108548 9.3459C-0.0194109 11.5437 0.00122776 13.7216 0.00122776 15.9155C0.00122776 18.1093 -0.0194109 20.2912 0.108548 22.485C0.236507 25.0332 0.839153 27.2948 2.77092 29.1581C4.70682 31.0255 7.04723 31.6028 9.68897 31.7262C11.9675 31.8497 14.2253 31.8297 16.4997 31.8297C18.7782 31.8297 21.036 31.8497 23.3104 31.7262C25.9522 31.6028 28.2967 31.0215 30.2285 29.1581C32.1644 27.2908 32.7629 25.0332 32.8908 22.485C33.0229 20.2912 32.9982 18.1133 32.9982 15.9155ZM16.4956 24.0816C11.8106 24.0816 8.02963 20.4345 8.02963 15.9155C8.02963 11.3964 11.8106 7.74929 16.4956 7.74929C21.1805 7.74929 24.9615 11.3964 24.9615 15.9155C24.9615 20.4345 21.1805 24.0816 16.4956 24.0816ZM25.3082 9.32201C24.2144 9.32201 23.3311 8.46996 23.3311 7.41484C23.3311 6.35973 24.2144 5.50768 25.3082 5.50768C26.4021 5.50768 27.2854 6.35973 27.2854 7.41484C27.2857 7.66538 27.2348 7.91353 27.1356 8.14505C27.0363 8.37659 26.8907 8.58695 26.707 8.76411C26.5234 8.94127 26.3053 9.08174 26.0653 9.17747C25.8252 9.27321 25.568 9.32232 25.3082 9.32201Z" fill="black"/>
</svg>
